<?xml version="1.0" encoding="utf-8"?>
<!-- Generator: Adobe Illustrator 22.0.1, SVG Export Plug-In . SVG Version: 6.00 Build 0)  -->
<svg version="1.1" id="Capa_1" xmlns="http://www.w3.org/2000/svg" xmlns:xlink="http://www.w3.org/1999/xlink" x="0px" y="0px"
	 viewBox="0 0 40.6 32.4" style="enable-background:new 0 0 40.6 32.4;" xml:space="preserve">
<style type="text/css">
	.st0{fill:#464346;}
	.st1{fill:#ECEAEC;}
	.st2{fill:#C539C9;}
	.st3{fill:none;stroke:#F8436E;stroke-miterlimit:10;}
	.st4{fill:#FFFFFF;}
	.st5{fill:#F8436E;}
	.st6{fill:#E8E8E8;}
	.st7{fill:#E338E8;}
	.st8{fill:none;}
	.st9{fill:none;stroke:#D8D8D8;stroke-miterlimit:10;}
	.st10{fill:#FFFFFF;stroke:#D8D8D8;stroke-miterlimit:10;}
	.st11{fill:#FFE212;}
	.st12{fill:none;stroke:#A09AA0;stroke-miterlimit:10;}
	.st13{fill:#09D261;}
	.st14{fill:none;stroke:#C6C4C6;stroke-miterlimit:10;}
	.st15{fill:url(#SVGID_27_);}
	.st16{fill:url(#SVGID_28_);}
	.st17{fill:#FFFFFF;stroke:#F8436E;stroke-miterlimit:10;}
	.st18{clip-path:url(#SVGID_80_);}
	.st19{clip-path:url(#SVGID_84_);}
	.st20{clip-path:url(#SVGID_88_);}
	.st21{clip-path:url(#SVGID_92_);}
	.st22{clip-path:url(#SVGID_96_);}
	.st23{clip-path:url(#SVGID_100_);}
	.st24{clip-path:url(#SVGID_104_);}
</style>
<g>
	<g>
		<g>
			<path class="st4" d="M28.3,10.7c0,0-0.1,0-0.1,0v0h-1.7v-1c0-2.1-1.7-3.8-3.8-3.8c-1.5,0-2.8,0.8-3.4,2.1c-1.4,0.3-2.6,1.3-3,2.7
				h-0.5c-0.1,0-0.2,0-0.2,0.1l-2.1,2.1c-0.1,0.1-0.1,0.2-0.1,0.2v13.2c0,0.2,0.2,0.3,0.3,0.3h13.5v0c0,0,0,0,0,0
				c0.8,0,1.4-0.6,1.4-1.4V11C28.5,10.9,28.4,10.7,28.3,10.7z M22.6,6.5c1.7,0,3.1,1.4,3.1,3.1v1h-2.2C23,9.1,21.6,8,20,7.9
				C20.6,7,21.5,6.5,22.6,6.5z M23.6,16.2v-0.6c0.3,0.2,0.4,0.6,0.3,0.9c-0.2,0.3-0.6,0.4-0.9,0.3c-0.3-0.2-0.4-0.6-0.3-0.9
				c0.1-0.1,0.1-0.2,0.3-0.3v0.6H23.6z M19.5,9.6c0-0.4,0.1-0.7,0.2-1c0.1,0,0.1,0,0.2,0c1.3,0,2.5,0.8,2.9,2.1h-3.3V9.6z M18.9,8.7
				c-0.1,0.3-0.1,0.6-0.1,0.9v1h-1.9C17.2,9.7,17.9,9,18.9,8.7z M16.7,11.7c0-0.1,0-0.2,0-0.3h6.2c0,0.1,0,0.2,0,0.3v1h-6.3
				L16.7,11.7L16.7,11.7z M16.7,16.2v-0.6c0.3,0.2,0.4,0.6,0.3,0.9c-0.2,0.3-0.6,0.4-0.9,0.3c-0.3-0.2-0.4-0.6-0.3-0.9
				c0.1-0.1,0.1-0.2,0.3-0.3v0.6H16.7z M15.8,11.4H16c0,0.1,0,0.2,0,0.3v1h-1.6L15.8,11.4z M13.9,25.9V13.4H16v1.4
				c-0.7,0.2-1.2,0.9-1,1.7c0.2,0.7,0.9,1.2,1.7,1c0.7-0.2,1.2-0.9,1-1.7c-0.1-0.5-0.5-0.9-1-1v-1.4h6.3v1.4c-0.7,0.2-1.2,0.9-1,1.7
				c0.2,0.7,0.9,1.2,1.7,1c0.7-0.2,1.2-0.9,1-1.7c-0.1-0.5-0.5-0.9-1-1v-1.4h2.1v11.8c0,0.2,0.1,0.5,0.2,0.7H13.9z M23.6,12.7v-1
				c0-0.1,0-0.2,0-0.3h3.7l-1.4,1.4H23.6z M27.8,25.2c0,0.4-0.3,0.7-0.7,0.7c-0.4,0-0.7-0.3-0.7-0.7v-12l1.4-1.4V25.2z"/>
		</g>
	</g>
	<rect class="st8" width="40.6" height="32.4"/>
</g>
</svg>
