<?xml version="1.0" encoding="utf-8"?>
<!-- Generator: Adobe Illustrator 22.0.1, SVG Export Plug-In . SVG Version: 6.00 Build 0)  -->
<svg version="1.1" id="Capa_1" xmlns="http://www.w3.org/2000/svg" xmlns:xlink="http://www.w3.org/1999/xlink" x="0px" y="0px"
	 viewBox="0 0 40.6 32.4" style="enable-background:new 0 0 40.6 32.4;" xml:space="preserve">
<style type="text/css">
	.st0{fill:#464346;}
	.st1{fill:#ECEAEC;}
	.st2{fill:#C539C9;}
	.st3{fill:none;stroke:#F8436E;stroke-miterlimit:10;}
	.st4{fill:#FFFFFF;}
	.st5{fill:#F8436E;}
	.st6{fill:#E8E8E8;}
	.st7{fill:#E338E8;}
	.st8{fill:none;}
	.st9{fill:none;stroke:#D8D8D8;stroke-miterlimit:10;}
	.st10{fill:#FFFFFF;stroke:#D8D8D8;stroke-miterlimit:10;}
	.st11{fill:#FFE212;}
	.st12{fill:none;stroke:#A09AA0;stroke-miterlimit:10;}
	.st13{fill:#09D261;}
	.st14{fill:none;stroke:#C6C4C6;stroke-miterlimit:10;}
	.st15{fill:url(#SVGID_27_);}
	.st16{fill:url(#SVGID_28_);}
	.st17{fill:#FFFFFF;stroke:#F8436E;stroke-miterlimit:10;}
	.st18{clip-path:url(#SVGID_80_);}
	.st19{clip-path:url(#SVGID_84_);}
	.st20{clip-path:url(#SVGID_88_);}
	.st21{clip-path:url(#SVGID_92_);}
	.st22{clip-path:url(#SVGID_96_);}
	.st23{clip-path:url(#SVGID_100_);}
	.st24{clip-path:url(#SVGID_104_);}
</style>
<g>
	<g>
		<g>
			<path class="st4" d="M20.1,16.3C20.2,16.3,20.2,16.3,20.1,16.3C20.2,16.3,20.2,16.3,20.1,16.3c0.1,0,0.1,0,0.1,0
				c1.2,0,2.1-0.4,2.9-1.2c1.6-1.8,1.3-4.8,1.3-5.1c-0.1-2.2-1.1-3.2-2-3.7c-0.6-0.4-1.4-0.6-2.2-0.6h0c0,0,0,0,0,0h0
				c-0.5,0-1.3,0.1-2.2,0.6c-0.9,0.5-1.9,1.5-2,3.7c0,0.3-0.3,3.3,1.3,5.1C18,15.9,19,16.3,20.1,16.3z M17.1,10.1
				C17.1,10.1,17.1,10.1,17.1,10.1c0.1-2.9,2.2-3.3,3.1-3.3h0c0,0,0,0,0,0c1.1,0,3,0.5,3.1,3.2c0,0,0,0,0,0c0,0,0.3,2.8-1,4.2
				c-0.5,0.6-1.2,0.9-2.1,0.9c0,0,0,0,0,0l0,0c0,0,0,0,0,0c-0.9,0-1.6-0.3-2.1-0.9C16.8,12.9,17.1,10.2,17.1,10.1z"/>
			<path class="st4" d="M28.5,21.3C28.5,21.3,28.5,21.3,28.5,21.3c0,0,0-0.1,0-0.1c0-0.8-0.1-2.7-1.8-3.3c0,0,0,0,0,0
				c-1.8-0.5-3.3-1.5-3.4-1.5c-0.2-0.2-0.6-0.1-0.8,0.1c-0.2,0.2-0.1,0.6,0.1,0.8c0.1,0,1.7,1.2,3.7,1.7c0.9,0.3,1.1,1.3,1.1,2.3
				c0,0,0,0.1,0,0.1c0,0.4,0,0.9-0.1,1.3c-0.7,0.4-3.2,1.7-7.1,1.7c-3.9,0-6.5-1.3-7.2-1.7C13,22.3,13,21.7,13,21.4c0,0,0-0.1,0-0.1
				c0-0.9,0.1-1.9,1.1-2.3c2-0.5,3.6-1.6,3.7-1.7c0.2-0.2,0.3-0.5,0.1-0.8s-0.5-0.3-0.8-0.1c0,0-1.5,1.1-3.4,1.5c0,0,0,0,0,0
				c-1.8,0.6-1.8,2.5-1.8,3.3c0,0,0,0.1,0,0.1c0,0,0,0,0,0c0,0.2,0,1.3,0.2,1.8c0,0.1,0.1,0.2,0.2,0.3c0.1,0.1,3,1.9,7.9,1.9
				s7.8-1.9,7.9-1.9c0.1-0.1,0.2-0.2,0.2-0.3C28.6,22.6,28.6,21.6,28.5,21.3z"/>
		</g>
	</g>
	<rect class="st8" width="40.6" height="32.4"/>
</g>
</svg>
