<?xml version="1.0" encoding="utf-8"?>
<!-- Generator: Adobe Illustrator 22.0.1, SVG Export Plug-In . SVG Version: 6.00 Build 0)  -->
<svg version="1.1" id="Capa_1" xmlns="http://www.w3.org/2000/svg" xmlns:xlink="http://www.w3.org/1999/xlink" x="0px" y="0px"
	 viewBox="0 0 14 14" style="enable-background:new 0 0 14 14;" xml:space="preserve">
<style type="text/css">
	.st0{fill:#464346;}
	.st1{fill:#ECEAEC;}
	.st2{fill:#C539C9;}
	.st3{fill:none;stroke:#F8436E;stroke-miterlimit:10;}
	.st4{fill:#FFFFFF;}
	.st5{fill:#F8436E;}
	.st6{fill:#E8E8E8;}
	.st7{fill:#E338E8;}
	.st8{fill:none;}
	.st9{fill:none;stroke:#D8D8D8;stroke-miterlimit:10;}
	.st10{fill:#FFFFFF;stroke:#D8D8D8;stroke-miterlimit:10;}
	.st11{fill:#FFE212;}
	.st12{fill:none;stroke:#A09AA0;stroke-miterlimit:10;}
	.st13{fill:#09D261;}
	.st14{fill:none;stroke:#C6C4C6;stroke-miterlimit:10;}
	.st15{fill:url(#SVGID_27_);}
	.st16{fill:url(#SVGID_28_);}
	.st17{fill:#FFFFFF;stroke:#F8436E;stroke-miterlimit:10;}
	.st18{clip-path:url(#SVGID_76_);}
	.st19{clip-path:url(#SVGID_80_);}
	.st20{clip-path:url(#SVGID_84_);}
	.st21{clip-path:url(#SVGID_88_);}
</style>
<g>
	<g>
		<g>
			<path class="st6" d="M8.5,5.2c-0.2,0-0.3,0.1-0.3,0.3s0.1,0.3,0.3,0.3s0.3-0.1,0.3-0.3S8.6,5.2,8.5,5.2z"/>
		</g>
	</g>
	<g>
		<g>
			<path class="st6" d="M13.7,12.1L10,8.5c0.6-0.9,0.9-1.9,0.9-3c0-3-2.5-5.5-5.5-5.5S0,2.5,0,5.5s2.5,5.5,5.5,5.5
				c1.1,0,2.1-0.3,3-0.9l1,1c0,0,0,0,0,0l2.6,2.6c0.2,0.2,0.5,0.3,0.8,0.3s0.6-0.1,0.8-0.3c0.2-0.2,0.3-0.5,0.3-0.8
				S13.9,12.3,13.7,12.1z M8.4,9.5C8.4,9.5,8.4,9.5,8.4,9.5c-0.8,0.6-1.8,0.9-2.9,0.9c-2.7,0-4.9-2.2-4.9-4.9s2.2-4.9,4.9-4.9
				s4.9,2.2,4.9,4.9c0,1-0.3,2-0.9,2.9C9.1,8.8,8.8,9.1,8.4,9.5z M8.9,9.7c0.3-0.2,0.5-0.5,0.8-0.8l0.8,0.8
				c-0.2,0.3-0.5,0.5-0.8,0.8L8.9,9.7z M13.3,13.3c-0.1,0.1-0.2,0.2-0.4,0.2s-0.3-0.1-0.4-0.2l-2.4-2.4c0.3-0.2,0.5-0.5,0.8-0.8
				l2.4,2.4c0.1,0.1,0.2,0.2,0.2,0.4S13.4,13.2,13.3,13.3z"/>
		</g>
	</g>
	<g>
		<g>
			<path class="st6" d="M5.5,1.1c-2.4,0-4.4,2-4.4,4.4s2,4.4,4.4,4.4s4.4-2,4.4-4.4S7.9,1.1,5.5,1.1z M5.5,9.3
				c-2.1,0-3.8-1.7-3.8-3.8s1.7-3.8,3.8-3.8s3.8,1.7,3.8,3.8S7.6,9.3,5.5,9.3z"/>
		</g>
	</g>
	<g>
		<g>
			<path class="st6" d="M8.5,4.3C8.3,3.7,7.9,3.2,7.3,2.8C6.8,2.4,6.1,2.2,5.5,2.2c-0.2,0-0.3,0.1-0.3,0.3s0.1,0.3,0.3,0.3
				c1.1,0,2.2,0.7,2.6,1.8c0,0.1,0.1,0.2,0.3,0.2c0,0,0.1,0,0.1,0C8.5,4.6,8.6,4.4,8.5,4.3z"/>
		</g>
	</g>
</g>
</svg>
