<?xml version="1.0" encoding="utf-8"?>
<!-- Generator: Adobe Illustrator 22.0.1, SVG Export Plug-In . SVG Version: 6.00 Build 0)  -->
<svg version="1.1" id="Capa_1" xmlns="http://www.w3.org/2000/svg" xmlns:xlink="http://www.w3.org/1999/xlink" x="0px" y="0px"
	 viewBox="0 0 19.4 18" style="enable-background:new 0 0 19.4 18;" xml:space="preserve">
<style type="text/css">
	.st0{fill:#464346;}
	.st1{fill:#ECEAEC;}
	.st2{fill:#C539C9;}
	.st3{fill:none;stroke:#F8436E;stroke-miterlimit:10;}
	.st4{fill:#FFFFFF;}
	.st5{fill:#F8436E;}
	.st6{fill:#E8E8E8;}
	.st7{fill:#E338E8;}
	.st8{fill:none;}
	.st9{fill:none;stroke:#D8D8D8;stroke-miterlimit:10;}
	.st10{fill:#FFFFFF;stroke:#D8D8D8;stroke-miterlimit:10;}
	.st11{fill:#FFE212;}
	.st12{fill:none;stroke:#A09AA0;stroke-miterlimit:10;}
	.st13{fill:#09D261;}
	.st14{fill:none;stroke:#C6C4C6;stroke-miterlimit:10;}
	.st15{fill:url(#SVGID_35_);}
	.st16{fill:url(#SVGID_36_);}
	.st17{fill:#FFFFFF;stroke:#F8436E;stroke-miterlimit:10;}
	.st18{clip-path:url(#SVGID_88_);}
	.st19{clip-path:url(#SVGID_92_);}
	.st20{clip-path:url(#SVGID_96_);}
	.st21{clip-path:url(#SVGID_100_);}
	.st22{clip-path:url(#SVGID_104_);}
	.st23{clip-path:url(#SVGID_108_);}
	.st24{clip-path:url(#SVGID_112_);}
</style>
<g>
	<path class="st0" d="M0.2,7.4c0.4,1.7,1.3,3.2,2.7,4.5L9.7,18l6.7-6.1c1.4-1.2,2.3-2.8,2.7-4.5c0.3-1.2,0.2-1.9,0.2-2
		C19,2.3,16.8,0,14.1,0c-1.8,0-3.4,1-4.4,2.6C8.8,1,7.1,0,5.3,0C2.5,0,0.3,2.3,0,5.4C0,5.5-0.1,6.2,0.2,7.4z M0.8,5.5
		C1,2.7,2.9,0.7,5.3,0.7c1.8,0,3.4,1.1,4.1,2.8l0.3,0.8l0.3-0.8c0.7-1.7,2.3-2.8,4-2.8c2.4,0,4.3,2,4.5,4.7l0,0c0,0,0.1,0.6-0.2,1.8
		c-0.4,1.6-1.2,3-2.5,4.1L9.7,17l-6.4-5.7c-1.2-1.1-2.1-2.5-2.5-4.1C0.7,6.1,0.8,5.5,0.8,5.5z"/>
	<path class="st0" d="M13,2.6C13,2.8,13.2,3,13.4,3c1.6,0,3,1.3,3,3c0,0.2,0.2,0.4,0.4,0.4c0.2,0,0.4-0.2,0.4-0.4
		c0-2.1-1.7-3.7-3.7-3.7C13.2,2.3,13,2.4,13,2.6z"/>
</g>
</svg>
