<?xml version="1.0" encoding="utf-8"?>
<!-- Generator: Adobe Illustrator 22.0.1, SVG Export Plug-In . SVG Version: 6.00 Build 0)  -->
<svg version="1.1" id="Capa_1" xmlns="http://www.w3.org/2000/svg" xmlns:xlink="http://www.w3.org/1999/xlink" x="0px" y="0px"
	 viewBox="0 0 35 35" style="enable-background:new 0 0 35 35;" xml:space="preserve">
<style type="text/css">
	.st0{fill:#464346;}
	.st1{fill:#ECEAEC;}
	.st2{fill:#C539C9;}
	.st3{fill:none;stroke:#F8436E;stroke-miterlimit:10;}
	.st4{fill:#FFFFFF;}
	.st5{fill:#F8436E;}
	.st6{fill:#E8E8E8;}
	.st7{fill:#E338E8;}
	.st8{fill:none;}
	.st9{fill:none;stroke:#D8D8D8;stroke-miterlimit:10;}
	.st10{fill:#FFFFFF;stroke:#D8D8D8;stroke-miterlimit:10;}
	.st11{fill:#FFE212;}
	.st12{fill:none;stroke:#A09AA0;stroke-miterlimit:10;}
	.st13{fill:#09D261;}
	.st14{fill:none;stroke:#C6C4C6;stroke-miterlimit:10;}
	.st15{fill:url(#SVGID_27_);}
	.st16{fill:url(#SVGID_28_);}
	.st17{fill:#FFFFFF;stroke:#F8436E;stroke-miterlimit:10;}
	.st18{clip-path:url(#SVGID_80_);}
	.st19{clip-path:url(#SVGID_84_);}
	.st20{clip-path:url(#SVGID_88_);}
	.st21{clip-path:url(#SVGID_92_);}
	.st22{clip-path:url(#SVGID_96_);}
	.st23{clip-path:url(#SVGID_100_);}
	.st24{clip-path:url(#SVGID_104_);}
</style>
<g>
	<rect class="st8" width="35" height="35"/>
	<g>
		<path class="st4" d="M23.6,4l-3.4,0c-3.8,0-6.3,2.5-6.3,6.4v3h-3.4c-0.3,0-0.5,0.2-0.5,0.5v4.3c0,0.3,0.2,0.5,0.5,0.5h3.4v10.8
			c0,0.3,0.2,0.5,0.5,0.5h4.4c0.3,0,0.5-0.2,0.5-0.5V18.8h4c0.3,0,0.5-0.2,0.5-0.5l0-4.3c0-0.1-0.1-0.3-0.2-0.4
			c-0.1-0.1-0.2-0.2-0.4-0.2h-4v-2.5c0-1.2,0.3-1.8,1.9-1.8l2.3,0c0.3,0,0.5-0.2,0.5-0.5v-4C24.1,4.2,23.9,4,23.6,4z"/>
	</g>
</g>
</svg>
