<?xml version="1.0" encoding="utf-8"?>
<!-- Generator: Adobe Illustrator 22.0.1, SVG Export Plug-In . SVG Version: 6.00 Build 0)  -->
<svg version="1.1" id="Capa_1" xmlns="http://www.w3.org/2000/svg" xmlns:xlink="http://www.w3.org/1999/xlink" x="0px" y="0px"
	 viewBox="0 0 26 22.8" style="enable-background:new 0 0 26 22.8;" xml:space="preserve">
<style type="text/css">
	.st0{fill:#464346;}
	.st1{fill:#ECEAEC;}
	.st2{fill:#C539C9;}
	.st3{fill:none;stroke:#F8436E;stroke-miterlimit:10;}
	.st4{fill:#FFFFFF;}
	.st5{fill:#F8436E;}
	.st6{fill:#E8E8E8;}
	.st7{fill:#E338E8;}
	.st8{fill:none;}
	.st9{fill:none;stroke:#D8D8D8;stroke-miterlimit:10;}
	.st10{fill:#FFFFFF;stroke:#D8D8D8;stroke-miterlimit:10;}
	.st11{fill:#FFE212;}
	.st12{fill:none;stroke:#A09AA0;stroke-miterlimit:10;}
	.st13{fill:#09D261;}
	.st14{fill:none;stroke:#C6C4C6;stroke-miterlimit:10;}
	.st15{fill:url(#SVGID_27_);}
	.st16{fill:url(#SVGID_28_);}
	.st17{fill:#FFFFFF;stroke:#F8436E;stroke-miterlimit:10;}
	.st18{clip-path:url(#SVGID_76_);}
	.st19{clip-path:url(#SVGID_80_);}
	.st20{clip-path:url(#SVGID_84_);}
	.st21{clip-path:url(#SVGID_88_);}
</style>
<g>
	<g id="_x36__1_">
		<g>
			<path class="st4" d="M14.1,16.4c-0.3,0.3-0.3,0.8,0,1.1c0.3,0.3,0.8,0.3,1.1,0l5.6-5.6c0.2-0.2,0.2-0.4,0.2-0.6
				c0-0.2-0.1-0.4-0.2-0.6l-5.6-5.6c-0.3-0.3-0.8-0.3-1.1,0c-0.3,0.3-0.3,0.8,0,1.1l4.3,4.3H0.8c-0.4,0-0.8,0.4-0.8,0.8
				s0.4,0.8,0.8,0.8h17.5L14.1,16.4z M22.8,0H6.5C4.7,0,3.3,1.5,3.3,3.3v3.3h1.6V3.3c0-0.9,0.7-1.6,1.6-1.6h16.3
				c0.9,0,1.6,0.7,1.6,1.6v16.3c0,0.9-0.7,1.6-1.6,1.6H6.5c-0.9,0-1.6-0.7-1.6-1.6v-3.3H3.3v3.3c0,1.8,1.5,3.3,3.3,3.3h16.3
				c1.8,0,3.3-1.5,3.3-3.3V3.3C26,1.5,24.5,0,22.8,0z"/>
		</g>
	</g>
</g>
</svg>
