<?xml version="1.0" encoding="utf-8"?>
<!-- Generator: Adobe Illustrator 22.0.1, SVG Export Plug-In . SVG Version: 6.00 Build 0)  -->
<svg version="1.1" id="Capa_1" xmlns="http://www.w3.org/2000/svg" xmlns:xlink="http://www.w3.org/1999/xlink" x="0px" y="0px"
	 viewBox="0 0 40.6 32.4" style="enable-background:new 0 0 40.6 32.4;" xml:space="preserve">
<style type="text/css">
	.st0{fill:#464346;}
	.st1{fill:#ECEAEC;}
	.st2{fill:#C539C9;}
	.st3{fill:none;stroke:#F8436E;stroke-miterlimit:10;}
	.st4{fill:#FFFFFF;}
	.st5{fill:#F8436E;}
	.st6{fill:#E8E8E8;}
	.st7{fill:#E338E8;}
	.st8{fill:none;}
	.st9{fill:none;stroke:#D8D8D8;stroke-miterlimit:10;}
	.st10{fill:#FFFFFF;stroke:#D8D8D8;stroke-miterlimit:10;}
	.st11{fill:#FFE212;}
	.st12{fill:none;stroke:#A09AA0;stroke-miterlimit:10;}
	.st13{fill:#09D261;}
	.st14{fill:none;stroke:#C6C4C6;stroke-miterlimit:10;}
	.st15{fill:url(#SVGID_27_);}
	.st16{fill:url(#SVGID_28_);}
	.st17{fill:#FFFFFF;stroke:#F8436E;stroke-miterlimit:10;}
	.st18{clip-path:url(#SVGID_80_);}
	.st19{clip-path:url(#SVGID_84_);}
	.st20{clip-path:url(#SVGID_88_);}
	.st21{clip-path:url(#SVGID_92_);}
	.st22{clip-path:url(#SVGID_96_);}
	.st23{clip-path:url(#SVGID_100_);}
	.st24{clip-path:url(#SVGID_104_);}
</style>
<g>
	<rect class="st8" width="40.6" height="32.4"/>
	<g>
		<g>
			<path class="st4" d="M29.4,10.2H25c0.3-0.2,0.6-0.4,0.8-0.6c1.1-1.1,1.1-3,0-4.1c-1.1-1.1-3-1.1-4.1,0c-0.6,0.6-2.2,3.1-2,4.7
				h-0.1c0.2-1.6-1.4-4.1-2-4.7c-1.1-1.1-3-1.1-4.1,0c-1.1,1.1-1.1,3,0,4.1c0.2,0.2,0.5,0.4,0.8,0.6H10c-0.8,0-1.4,0.6-1.4,1.4V15
				c0,0.4,0.3,0.7,0.7,0.7H10v8.4c0,0.8,0.6,1.4,1.4,1.4h16.7c0.8,0,1.4-0.6,1.4-1.4v-8.4h0.7c0.4,0,0.7-0.3,0.7-0.7v-3.5
				C30.8,10.8,30.2,10.2,29.4,10.2z M14.6,6.4C14.9,6.2,15.2,6,15.6,6c0.4,0,0.8,0.2,1.1,0.4c0.9,0.9,1.9,3.4,1.5,3.7
				c0,0-0.1,0-0.3,0c-1,0-2.8-1-3.4-1.6C14,8,14,7,14.6,6.4z M19,24.1h-7.7v-8.4H19V24.1z M19,14.4h-9v-2.8h8h1V14.4z M22.7,6.4
				c0.6-0.6,1.5-0.6,2.1,0c0.6,0.6,0.6,1.5,0,2.1c-0.6,0.6-2.4,1.6-3.4,1.6c-0.2,0-0.3,0-0.3,0C20.8,9.8,21.8,7.4,22.7,6.4z
				 M28.1,24.1h-7.7v-8.4h7.7V24.1z M29.4,14.4h-9v-2.8h1h8V14.4z"/>
		</g>
	</g>
</g>
</svg>
